<?xml version="1.0" encoding="iso-8859-1"?>
<!-- Uploaded to: SVG Repo, www.svgrepo.com, Generator: SVG Repo Mixer Tools -->
<svg height="800px" width="800px" version="1.1" id="Layer_1" xmlns="http://www.w3.org/2000/svg" xmlns:xlink="http://www.w3.org/1999/xlink" 
	 viewBox="0 0 511.98 511.98" xml:space="preserve">
<path style="fill:#5D9CEC;" d="M460.2,418.357l-1.812-0.531c-26.468-7.094-35.436-13.938-47.217-18.406
	c-41.781-15.938-52.655-27.405-55.437-32.843c-0.109-0.188-0.188-0.406-0.281-0.594l-0.344-48.562l-99.122-1.125l-99.131,1.125
	l-0.344,48.562c-0.086,0.188-0.164,0.406-0.266,0.594c-2.781,5.438-13.655,16.905-55.451,32.843
	c-11.781,4.469-20.734,11.312-47.202,18.406l-1.812,0.531c-24.093,7.969-40.312,30.312-40.312,55.529v38.094h244.518h244.525
	v-38.094C500.512,448.669,484.294,426.326,460.2,418.357z"/>
<path style="fill:#434A54;" d="M346.187,510.636c-3.624,0-7.171-1.844-9.155-5.156c-0.438-0.75-10.703-18.125-11.484-44.188
	c-0.734-23.686,6.406-59.561,44.529-95.935c22.344-21.343,34.312-47.249,35.562-76.998c0.969-22.632-4.938-39.21-5-39.366
	c-2-5.531,0.828-11.656,6.344-13.672c5.531-2.031,11.625,0.781,13.672,6.297c0.297,0.812,7.28,20.031,6.343,46.647
	c-0.859,24.655-8.89,60.718-42.202,92.498c-26.03,24.874-38.796,51.749-37.937,79.872c0.625,20.25,8.375,33.719,8.469,33.844
	c3.031,5.062,1.375,11.625-3.656,14.656C349.953,510.168,348.047,510.636,346.187,510.636z"/>
<path style="fill:#CCD1D9;" d="M407.499,140.497c-0.047-0.281-5.688-30.593-27.312-60.265
	c-12.484-17.124-27.827-30.749-45.623-40.483c-22.344-12.218-48.766-18.421-78.576-18.421c-29.976,0-56.382,6.266-78.475,18.64
	c-17.547,9.812-32.53,23.547-44.53,40.78c-20.625,29.625-25.288,59.202-25.327,59.499l-21.094-3.188
	c0.211-1.406,5.477-34.843,28.913-68.498c13.867-19.922,31.234-35.797,51.616-47.218C192.41,7.172,222.316,0,255.987,0
	c33.654,0,63.701,7.172,89.341,21.328c20.608,11.374,38.312,27.218,52.64,47.093c24.219,33.593,30.296,66.982,30.546,68.389
	L407.499,140.497z"/>
<path style="fill:#EAC6BB;" d="M393.546,223.495c0,89.364-85.217,171.612-137.559,171.612c-52.351,0-137.552-82.248-137.552-171.612
	c0-89.373,61.585-148.341,137.552-148.341S393.546,134.122,393.546,223.495z"/>
<path style="fill:#965353;" d="M341.079,60.405c-23.391-21.188-104.654-51.624-180.02,0
	c-59.436,40.718-42.765,143.371-42.765,143.371s67.319,19.719,156.66-31.312c57.749-32.999,77.873,0.562,88.217,29.78
	c10.062,28.437,30.374,21.25,30.374,21.25S415.921,128.184,341.079,60.405z"/>
<path style="fill:#7F4242;" d="M315.266,158.84c8.156-0.25,15.016,1.531,20.812,4.75c11.093-40.249,32.936-51.093,42.467-53.936
	c-3.109-6.25-6.719-12.531-10.906-18.719C352.047,97.06,327.391,113.747,315.266,158.84z"/>
<path style="fill:#656D78;" d="M439.342,127.981h-42.671c-5.891,0-10.656,4.781-10.656,10.672v106.669
	c0,5.891,4.766,10.656,10.656,10.656h42.671c5.89,0,10.671-4.766,10.671-10.656V138.653
	C450.012,132.762,445.231,127.981,439.342,127.981z"/>
<g>
	<path style="fill:#434A54;" d="M396.671,181.324c5.906,0,10.672-4.781,10.672-10.672s-4.766-10.672-10.672-10.672h-10.656v21.344
		H396.671z"/>
	<path style="fill:#434A54;" d="M396.671,223.979c5.906,0,10.672-4.766,10.672-10.656s-4.766-10.672-10.672-10.672h-10.656v21.328
		H396.671z"/>
</g>
<path style="fill:#656D78;" d="M75.772,127.981h42.663c5.891,0,10.672,4.781,10.672,10.672v106.669
	c0,5.891-4.781,10.656-10.672,10.656H75.772c-5.891,0-10.663-4.766-10.663-10.656V138.653
	C65.109,132.762,69.882,127.981,75.772,127.981z"/>
<g>
	<path style="fill:#434A54;" d="M118.435,181.324c-5.891,0-10.663-4.781-10.663-10.672s4.772-10.672,10.663-10.672h10.672v21.344
		H118.435z"/>
	<path style="fill:#434A54;" d="M118.435,223.979c-5.891,0-10.663-4.766-10.663-10.656s4.772-10.672,10.663-10.672h10.672v21.328
		H118.435z"/>
</g>
</svg>